<svg width="29" height="28" viewBox="0 0 29 28" fill="none" xmlns="http://www.w3.org/2000/svg">
<rect width="29" height="28" rx="14" fill="#0EB96D" fill-opacity="0.15"/>
<path d="M14.3479 12.668C14.6361 12.668 14.8697 12.8918 14.8697 13.168V15.0013H15.7392C16.0274 15.0013 16.261 15.2252 16.261 15.5013C16.261 15.7774 16.0274 16.0013 15.7392 16.0013H14.3479C14.0598 16.0013 13.8262 15.7774 13.8262 15.5013V13.168C13.8262 12.8918 14.0598 12.668 14.3479 12.668Z" fill="white"/>
<path fill-rule="evenodd" clip-rule="evenodd" d="M16.4349 7.66797C16.723 7.66797 16.9566 7.89183 16.9566 8.16797C16.9566 8.44411 16.723 8.66797 16.4349 8.66797H14.8697V9.69141C17.6986 9.94349 19.9131 12.2244 19.9131 15.0013C19.9131 17.9468 17.4215 20.3346 14.3479 20.3346C11.2743 20.3346 8.78271 17.9468 8.78271 15.0013C8.78271 12.2244 10.9973 9.94349 13.8262 9.69141V8.66797H12.261C11.9728 8.66797 11.7392 8.44411 11.7392 8.16797C11.7392 7.89183 11.9728 7.66797 12.261 7.66797H16.4349ZM14.3479 10.668C11.8506 10.668 9.82619 12.6081 9.82619 15.0013C9.82619 17.3945 11.8506 19.3346 14.3479 19.3346C16.8452 19.3346 18.8697 17.3945 18.8697 15.0013C18.8697 12.6081 16.8452 10.668 14.3479 10.668Z" fill="white"/>
</svg>
