<svg width="29" height="28" viewBox="0 0 29 28" fill="none" xmlns="http://www.w3.org/2000/svg">
<rect width="29" height="28" rx="14" fill="white" fill-opacity="0.15"/>
<path d="M12.087 9.9987C12.087 9.72256 11.8534 9.4987 11.5653 9.4987C11.2771 9.4987 11.0435 9.72256 11.0435 9.9987V10.832H10.174C9.88582 10.832 9.65223 11.0559 9.65223 11.332C9.65223 11.6082 9.88582 11.832 10.174 11.832H11.0435V12.6654C11.0435 12.9415 11.2771 13.1654 11.5653 13.1654C11.8534 13.1654 12.087 12.9415 12.087 12.6654V11.832H12.9566C13.2447 11.832 13.4783 11.6082 13.4783 11.332C13.4783 11.0559 13.2447 10.832 12.9566 10.832H12.087V9.9987Z" fill="white"/>
<path fill-rule="evenodd" clip-rule="evenodd" d="M14.3479 7.33203H10.174C8.63717 7.33203 7.39136 8.52594 7.39136 9.9987V13.9987C7.39136 14.7351 8.01427 15.332 8.78266 15.332H8.95657V16.6654C8.95657 17.4108 9.29704 18.0801 9.83709 18.5381C9.94473 19.5459 10.8331 20.332 11.9131 20.332C12.7587 20.332 13.4868 19.8501 13.8147 19.1572C13.8134 19.16 13.8121 19.1627 13.8108 19.1654H15.2328C15.5625 19.8539 16.2882 20.332 17.1305 20.332C17.9937 20.332 18.7344 19.8298 19.052 19.1137C20.2385 18.8789 21.1305 17.872 21.1305 16.6654V13.9113C21.1305 13.5463 21.0168 13.1897 20.8041 12.887L18.4677 9.56293C17.8536 8.68922 16.8263 8.16536 15.7271 8.16536H15.6381C15.6439 8.1791 15.6494 8.19296 15.6548 8.20692C15.4597 7.69638 14.9482 7.33203 14.3479 7.33203ZM10.174 8.33203H14.3479C14.54 8.33203 14.6957 8.48127 14.6957 8.66536V13.9987C14.6957 14.1828 14.54 14.332 14.3479 14.332H8.78266C8.59056 14.332 8.43484 14.1828 8.43484 13.9987V9.9987C8.43484 9.07822 9.21347 8.33203 10.174 8.33203ZM10.0001 16.6654V15.332H14.3479C15.1163 15.332 15.7392 14.7351 15.7392 13.9987V9.1654C16.4867 9.16921 17.1843 9.52699 17.6023 10.1216L17.6854 10.2399C17.0602 10.4366 16.6087 11.0004 16.6087 11.6654V12.832C16.6087 14.3048 17.8546 15.4987 19.3914 15.4987H20.087V16.6654C20.087 17.2638 19.7213 17.7804 19.1924 18.0211C19.0365 17.0642 18.1727 16.332 17.1305 16.332C16.0365 16.332 15.139 17.1388 15.0507 18.1654H13.9929C13.9045 17.1388 13.0071 16.332 11.9131 16.332C11.1629 16.332 10.5052 16.7113 10.1374 17.2807C10.0492 17.093 10.0001 16.8847 10.0001 16.6654ZM18.174 11.1654C18.2252 11.1654 18.2748 11.1583 18.3216 11.1451L19.9387 13.4457C20.0354 13.5833 20.087 13.7454 20.087 13.9113V14.4987H19.3914C18.4309 14.4987 17.6522 13.7525 17.6522 12.832V11.6654C17.6522 11.3892 17.8858 11.1654 18.174 11.1654ZM12.9566 18.332C12.9566 18.8843 12.4894 19.332 11.9131 19.332C11.3368 19.332 10.8696 18.8843 10.8696 18.332C10.8696 17.7797 11.3368 17.332 11.9131 17.332C12.4894 17.332 12.9566 17.7797 12.9566 18.332ZM17.1305 19.332C17.7068 19.332 18.174 18.8843 18.174 18.332C18.174 17.7797 17.7068 17.332 17.1305 17.332C16.5542 17.332 16.087 17.7797 16.087 18.332C16.087 18.8843 16.5542 19.332 17.1305 19.332Z" fill="white"/>
</svg>
