<svg width="37" height="33" viewBox="0 0 37 33" fill="none" xmlns="http://www.w3.org/2000/svg">
<rect x="0.5" width="36" height="32.5714" rx="10.2857" fill="#2A2B65"/>
<path d="M15.7154 11.356C15.7154 11.0158 15.4276 10.74 15.0725 10.74C14.7175 10.74 14.4297 11.0158 14.4297 11.356V12.3828H13.3583C13.0032 12.3828 12.7154 12.6586 12.7154 12.9989C12.7154 13.3391 13.0032 13.615 13.3583 13.615H14.4297V14.6417C14.4297 14.982 14.7175 15.2578 15.0725 15.2578C15.4276 15.2578 15.7154 14.982 15.7154 14.6417V13.615H16.7868C17.1419 13.615 17.4297 13.3391 17.4297 12.9989C17.4297 12.6586 17.1419 12.3828 16.7868 12.3828H15.7154V11.356Z" fill="#EBEBF2"/>
<path fill-rule="evenodd" clip-rule="evenodd" d="M18.5011 8.07031H13.3583C11.4647 8.07031 9.92969 9.54138 9.92969 11.356V16.2846C9.92969 17.1919 10.6972 17.9275 11.644 17.9275H11.8583V19.5703C11.8583 20.4888 12.2778 21.3135 12.9432 21.8778C13.0758 23.1195 14.1704 24.0882 15.5011 24.0882C16.543 24.0882 17.4401 23.4944 17.8441 22.6407C17.8426 22.644 17.841 22.6473 17.8394 22.6507H19.5914C19.9977 23.499 20.8919 24.0882 21.9297 24.0882C22.9932 24.0882 23.906 23.4694 24.2973 22.587C25.7592 22.2977 26.8583 21.057 26.8583 19.5703V16.1768C26.8583 15.7272 26.7182 15.2878 26.4561 14.9149L23.5773 10.8191C22.8207 9.74256 21.5549 9.0971 20.2005 9.0971H20.0908C20.0979 9.11403 20.1048 9.1311 20.1114 9.1483C19.871 8.51925 19.2408 8.07031 18.5011 8.07031ZM13.3583 9.30246H18.5011C18.7378 9.30246 18.9297 9.48634 18.9297 9.71317V16.2846C18.9297 16.5114 18.7378 16.6953 18.5011 16.6953H11.644C11.4073 16.6953 11.2154 16.5114 11.2154 16.2846V11.356C11.2154 10.2219 12.1748 9.30246 13.3583 9.30246ZM13.144 19.5703V17.9275H18.5011C19.4479 17.9275 20.2154 17.1919 20.2154 16.2846V10.3293C21.1365 10.334 21.996 10.7748 22.511 11.5075L22.6134 11.6532C21.8431 11.8955 21.2868 12.5903 21.2868 13.4096V14.8471C21.2868 16.6617 22.8219 18.1328 24.7154 18.1328H25.5725V19.5703C25.5725 20.3077 25.1219 20.9442 24.4702 21.2408C24.2782 20.0617 23.2139 19.1596 21.9297 19.1596C20.5817 19.1596 19.4759 20.1536 19.3671 21.4185H18.0637C17.9549 20.1536 16.8491 19.1596 15.5011 19.1596C14.5768 19.1596 13.7664 19.6269 13.3132 20.3285C13.2045 20.0972 13.144 19.8405 13.144 19.5703ZM23.2154 12.7935C23.2786 12.7935 23.3396 12.7848 23.3973 12.7685L25.3898 15.6032C25.5089 15.7727 25.5725 15.9725 25.5725 16.1768V16.9007H24.7154C23.5319 16.9007 22.5725 15.9813 22.5725 14.8471V13.4096C22.5725 13.0694 22.8604 12.7935 23.2154 12.7935ZM16.7868 21.6239C16.7868 22.3044 16.2112 22.856 15.5011 22.856C14.791 22.856 14.2154 22.3044 14.2154 21.6239C14.2154 20.9434 14.791 20.3917 15.5011 20.3917C16.2112 20.3917 16.7868 20.9434 16.7868 21.6239ZM21.9297 22.856C22.6398 22.856 23.2154 22.3044 23.2154 21.6239C23.2154 20.9434 22.6398 20.3917 21.9297 20.3917C21.2196 20.3917 20.644 20.9434 20.644 21.6239C20.644 22.3044 21.2196 22.856 21.9297 22.856Z" fill="#EBEBF2"/>
</svg>
