<svg width="29" height="28" viewBox="0 0 29 28" fill="none" xmlns="http://www.w3.org/2000/svg">
<rect width="29" height="28" rx="14" fill="#CF252F" fill-opacity="0.15"/>
<path fill-rule="evenodd" clip-rule="evenodd" d="M17.1304 13.332C17.1304 14.8048 15.8846 15.9987 14.3478 15.9987C12.811 15.9987 11.5652 14.8048 11.5652 13.332C11.5652 11.8593 12.811 10.6654 14.3478 10.6654C15.8846 10.6654 17.1304 11.8593 17.1304 13.332ZM16.0869 13.332C16.0869 14.2525 15.3083 14.9987 14.3478 14.9987C13.3873 14.9987 12.6087 14.2525 12.6087 13.332C12.6087 12.4116 13.3873 11.6654 14.3478 11.6654C15.3083 11.6654 16.0869 12.4116 16.0869 13.332Z" fill="white"/>
<path fill-rule="evenodd" clip-rule="evenodd" d="M13.324 20.2333C10.4119 18.8323 8.39933 16.3084 8.08691 13.332C8.08691 10.0183 10.89 7.33203 14.3478 7.33203C17.8056 7.33203 20.6087 10.0183 20.6087 13.332C20.2987 16.285 18.0553 18.7926 15.3552 20.2C14.7245 20.5287 13.9657 20.5419 13.324 20.2333ZM14.8566 19.3215C14.5248 19.4945 14.1272 19.5007 13.7922 19.3395C11.1693 18.0778 9.41971 15.8494 9.13064 13.2824C9.15842 10.5438 11.4836 8.33203 14.3478 8.33203C17.2119 8.33203 19.537 10.5437 19.5649 13.2821C19.279 15.7911 17.3361 18.0291 14.8566 19.3215Z" fill="white"/>
</svg>
