<svg width="80" height="80" viewBox="0 0 80 80" fill="none" xmlns="http://www.w3.org/2000/svg">
<rect width="80" height="80" rx="40" fill="#E7F8F0"/>
<path fill-rule="evenodd" clip-rule="evenodd" d="M39.0712 39.9994C44.2088 39.9994 48.3735 36.0081 48.3735 31.0847C48.3735 26.1612 44.2088 22.1699 39.0712 22.1699C33.9337 22.1699 29.7689 26.1612 29.7689 31.0847C29.7689 36.0081 33.9337 39.9994 39.0712 39.9994ZM39.0712 37.325C42.6675 37.325 45.5829 34.5311 45.5829 31.0847C45.5829 27.6382 42.6675 24.8443 39.0712 24.8443C35.4749 24.8443 32.5596 27.6382 32.5596 31.0847C32.5596 34.5311 35.4749 37.325 39.0712 37.325Z" fill="#0B9457"/>
<path d="M50.018 34.4435C50.5629 33.9213 51.4464 33.9213 51.9913 34.4435L53.6357 36.0194L55.2802 34.4435C55.8251 33.9213 56.7086 33.9213 57.2535 34.4435C57.7984 34.9657 57.7984 35.8124 57.2535 36.3346L55.6091 37.9105L57.2535 39.4865C57.7984 40.0087 57.7984 40.8553 57.2535 41.3776C56.7086 41.8998 55.8251 41.8998 55.2802 41.3776L53.6357 39.8016L51.9913 41.3776C51.4464 41.8998 50.5629 41.8998 50.018 41.3776C49.4731 40.8553 49.4731 40.0087 50.018 39.4865L51.6624 37.9105L50.018 36.3346C49.4731 35.8124 49.4731 34.9657 50.018 34.4435Z" fill="#0B9457"/>
<path fill-rule="evenodd" clip-rule="evenodd" d="M53.9549 49.8056C53.9549 54.2367 47.2913 57.8288 39.0712 57.8288C30.8512 57.8288 24.1875 54.2367 24.1875 49.8056C24.1875 45.3745 30.8512 41.7823 39.0712 41.7823C47.2913 41.7823 53.9549 45.3745 53.9549 49.8056ZM51.1642 49.8056C51.1642 50.6258 50.5181 51.9131 48.2274 53.1479C46.0243 54.3356 42.7927 55.1544 39.0712 55.1544C35.3497 55.1544 32.1182 54.3356 29.915 53.1479C27.6244 51.9131 26.9782 50.6258 26.9782 49.8056C26.9782 48.9853 27.6244 47.698 29.915 46.4632C32.1182 45.2756 35.3497 44.4567 39.0712 44.4567C42.7927 44.4567 46.0243 45.2756 48.2274 46.4632C50.5181 47.698 51.1642 48.9853 51.1642 49.8056Z" fill="#0B9457"/>
</svg>
