<svg width="29" height="28" viewBox="0 0 29 28" fill="none" xmlns="http://www.w3.org/2000/svg">
<rect width="29" height="28" rx="14" fill="#FFA424" fill-opacity="0.15"/>
<path fill-rule="evenodd" clip-rule="evenodd" d="M14.8695 8.74474C14.8695 7.86538 13.6325 7.58554 13.2222 8.37206L9.95889 14.6267C9.6698 15.1808 10.0902 15.8327 10.7367 15.8327H13.826V19.254C13.826 20.1334 15.063 20.4132 15.4734 19.6267L18.7367 13.3721C19.0257 12.818 18.6053 12.166 17.9589 12.166H14.8695V8.74474ZM11.0181 14.8327L13.826 9.45075V12.3327C13.826 12.793 14.2154 13.166 14.6956 13.166H17.6775L14.8695 18.548V15.666C14.8695 15.2058 14.4802 14.8327 13.9999 14.8327H11.0181Z" fill="white"/>
</svg>
