<svg width="37" height="33" viewBox="0 0 37 33" fill="none" xmlns="http://www.w3.org/2000/svg">
<rect x="0.5" width="36" height="32.5714" rx="10.2857" fill="#FFA424"/>
<path fill-rule="evenodd" clip-rule="evenodd" d="M24.1596 12.589C24.1596 14.6305 22.4327 16.2854 20.3024 16.2854C18.1722 16.2854 16.4453 14.6305 16.4453 12.589C16.4453 10.5475 18.1722 8.89258 20.3024 8.89258C22.4327 8.89258 24.1596 10.5475 24.1596 12.589ZM22.8739 12.589C22.8739 13.95 21.7226 15.0533 20.3024 15.0533C18.8823 15.0533 17.731 13.95 17.731 12.589C17.731 11.228 18.8823 10.1247 20.3024 10.1247C21.7226 10.1247 22.8739 11.228 22.8739 12.589Z" fill="#FFF6E9"/>
<path fill-rule="evenodd" clip-rule="evenodd" d="M26.4739 20.3515C26.4739 22.1888 23.7108 23.6783 20.3024 23.6783C16.8941 23.6783 14.131 22.1888 14.131 20.3515C14.131 18.5142 16.8941 17.0247 20.3024 17.0247C23.7108 17.0247 26.4739 18.5142 26.4739 20.3515ZM25.1882 20.3515C25.1882 20.6273 24.9672 21.128 24.036 21.63C23.145 22.1103 21.8276 22.4461 20.3024 22.4461C18.7772 22.4461 17.4599 22.1103 16.5689 21.63C15.6377 21.128 15.4167 20.6273 15.4167 20.3515C15.4167 20.0757 15.6377 19.575 16.5689 19.073C17.4599 18.5927 18.7772 18.2569 20.3024 18.2569C21.8276 18.2569 23.145 18.5927 24.036 19.073C24.9672 19.575 25.1882 20.0757 25.1882 20.3515Z" fill="#FFF6E9"/>
<path d="M16.0167 10.1512C16.0167 9.91597 15.8336 9.71401 15.5882 9.71401C13.6946 9.71401 12.1596 11.1851 12.1596 12.9997C12.1596 14.8144 13.6946 16.2854 15.5882 16.2854C15.8336 16.2854 16.0167 16.0835 16.0167 15.8483V15.4257C16.0167 15.212 15.8111 15.0533 15.5882 15.0533C14.4047 15.0533 13.4453 14.1339 13.4453 12.9997C13.4453 11.8656 14.4047 10.9461 15.5882 10.9461C15.8111 10.9461 16.0167 10.7874 16.0167 10.5738V10.1512Z" fill="#FFF6E9"/>
<path d="M13.0837 17.537C13.4825 17.4094 13.8739 17.7101 13.8739 18.113C13.8739 18.3977 13.6728 18.6433 13.3926 18.7381C13.1323 18.8263 12.8958 18.9259 12.6867 19.0338C11.8477 19.4668 11.731 19.8584 11.731 19.9819C11.731 20.1053 11.8477 20.497 12.6867 20.9299C12.8958 21.0378 13.1323 21.1375 13.3926 21.2256C13.6728 21.3204 13.8739 21.566 13.8739 21.8508C13.8739 22.2537 13.4825 22.5543 13.0837 22.4267C11.5 21.9197 10.4453 21.0143 10.4453 19.9819C10.4453 18.9494 11.5 18.044 13.0837 17.537Z" fill="#FFF6E9"/>
</svg>
